<svg width="15" height="15" viewBox="0 0 15 15" fill="none" xmlns="http://www.w3.org/2000/svg">
<path d="M13.3801 8.60407H8.60509V13.3794C8.60509 13.6326 8.50447 13.8756 8.32537 14.0547C8.14628 14.2338 7.90337 14.3344 7.65009 14.3344C7.39681 14.3344 7.1539 14.2338 6.9748 14.0547C6.7957 13.8756 6.69509 13.6326 6.69509 13.3794V8.60407H1.92009C1.66681 8.60407 1.4239 8.50345 1.2448 8.32434C1.0657 8.14524 0.965088 7.90231 0.965088 7.64902C0.965088 7.39572 1.0657 7.1528 1.2448 6.97369C1.4239 6.79458 1.66681 6.69396 1.92009 6.69396H6.69509V1.91868C6.69509 1.66538 6.7957 1.42246 6.9748 1.24335C7.1539 1.06424 7.39681 0.963623 7.65009 0.963623C7.90337 0.963623 8.14628 1.06424 8.32537 1.24335C8.50447 1.42246 8.60509 1.66538 8.60509 1.91868V6.69396H13.3801C13.6334 6.69396 13.8763 6.79458 14.0554 6.97369C14.2345 7.1528 14.3351 7.39572 14.3351 7.64902C14.3351 7.90231 14.2345 8.14524 14.0554 8.32434C13.8763 8.50345 13.6334 8.60407 13.3801 8.60407Z" fill="black"/>
</svg>
