<svg width="10" height="18" viewBox="0 0 10 18" fill="none" xmlns="http://www.w3.org/2000/svg">
<path d="M0.236172 9.56075L8.72219 17.7861C8.86378 17.9234 9.0519 18 9.24752 18C9.44314 18 9.63126 17.9234 9.77285 17.7861L9.78199 17.7768C9.85087 17.7102 9.90571 17.6301 9.94319 17.5413C9.98067 17.4525 10 17.3568 10 17.2602C10 17.1635 9.98067 17.0679 9.94319 16.9791C9.90571 16.8903 9.85087 16.8102 9.78199 16.7436L1.79085 8.99845L9.78199 1.25641C9.85087 1.18984 9.90571 1.10972 9.94319 1.02091C9.98067 0.932096 10 0.836458 10 0.739811C10 0.643162 9.98067 0.547523 9.94319 0.458714C9.90571 0.369902 9.85087 0.289776 9.78199 0.223209L9.77285 0.213915C9.63126 0.076601 9.44314 0 9.24752 0C9.0519 0 8.86378 0.076601 8.72219 0.213915L0.236172 8.43925C0.16154 8.51159 0.102126 8.59859 0.0615295 8.69498C0.0209332 8.79137 0 8.89514 0 9C0 9.10487 0.0209332 9.20864 0.0615295 9.30503C0.102126 9.40141 0.16154 9.48841 0.236172 9.56075Z" fill="#1C1C1C"/>
</svg>
