<svg width="16" height="18" viewBox="0 0 16 18" fill="none" xmlns="http://www.w3.org/2000/svg">
<path fill-rule="evenodd" clip-rule="evenodd" d="M2.26418 5.45996C2.42948 5.44898 2.59237 5.50408 2.71707 5.61315C2.84176 5.72222 2.91805 5.87634 2.92918 6.04163L3.31251 11.7916C3.38751 12.9141 3.44084 13.6958 3.55751 14.2833C3.67168 14.8541 3.83001 15.1558 4.05751 15.3691C4.28584 15.5825 4.59751 15.7208 5.17418 15.7958C5.76918 15.8733 6.55251 15.875 7.67751 15.875H8.32251C9.44751 15.875 10.2308 15.8733 10.8258 15.7958C11.4025 15.7208 11.7142 15.5825 11.9425 15.3691C12.17 15.1558 12.3283 14.8541 12.4425 14.2841C12.5592 13.6958 12.6125 12.9141 12.6875 11.7908L13.0708 6.04163C13.0763 5.95971 13.0979 5.87968 13.1343 5.8061C13.1707 5.73252 13.2212 5.66682 13.283 5.61277C13.3448 5.55872 13.4166 5.51737 13.4944 5.49108C13.5722 5.46479 13.6543 5.45407 13.7363 5.45954C13.8182 5.46501 13.8982 5.48657 13.9718 5.52297C14.0454 5.55937 14.1111 5.60991 14.1651 5.6717C14.2192 5.73349 14.2605 5.80532 14.2868 5.88309C14.3131 5.96086 14.3238 6.04305 14.3183 6.12496L13.9317 11.9183C13.8608 12.9866 13.8033 13.8508 13.6683 14.5283C13.5275 15.2325 13.2892 15.8208 12.7958 16.2816C12.3033 16.7433 11.7 16.9425 10.9875 17.035C10.3025 17.125 9.43751 17.125 8.36584 17.125H7.63418C6.56251 17.125 5.69751 17.125 5.01251 17.035C4.30001 16.9425 3.69668 16.7433 3.20418 16.2816C2.71084 15.8208 2.47251 15.2316 2.33168 14.5283C2.19668 13.85 2.14001 12.9866 2.06834 11.9183L1.68168 6.12496C1.67624 6.04304 1.687 5.96086 1.71334 5.88311C1.73968 5.80535 1.78107 5.73354 1.83517 5.67179C1.88926 5.61003 1.95499 5.55954 2.0286 5.5232C2.10221 5.48685 2.18226 5.46536 2.26418 5.45996ZM6.62918 0.87496H6.59084C6.41084 0.87496 6.25334 0.87496 6.10501 0.898293C5.81608 0.944579 5.542 1.05784 5.30469 1.22903C5.06738 1.40021 4.87342 1.62456 4.73834 1.88413C4.66834 2.01746 4.61918 2.16663 4.56251 2.33746L4.55001 2.37413L4.46918 2.61579C4.40536 2.8426 4.26654 3.04106 4.07538 3.17879C3.88422 3.31653 3.65202 3.38538 3.41668 3.37413H0.916676C0.750806 3.37413 0.591728 3.44002 0.47444 3.55731C0.357152 3.67459 0.29126 3.83367 0.29126 3.99954C0.29126 4.16541 0.357152 4.32449 0.47444 4.44178C0.591728 4.55907 0.750806 4.62496 0.916676 4.62496H15.0842C15.2499 4.62496 15.4089 4.55911 15.5261 4.4419C15.6433 4.32469 15.7092 4.16572 15.7092 3.99996C15.7092 3.8342 15.6433 3.67523 15.5261 3.55802C15.4089 3.44081 15.2499 3.37496 15.0842 3.37496H12.5083C12.2858 3.36962 12.0707 3.2931 11.8948 3.15663C11.7189 3.02015 11.5913 2.8309 11.5308 2.61663L11.45 2.37413L11.4383 2.33746C11.3808 2.16663 11.3317 2.01746 11.2625 1.88413C11.1273 1.62446 10.9333 1.40005 10.6958 1.22886C10.4583 1.05767 10.1841 0.944458 9.89501 0.898293C9.73392 0.877848 9.57148 0.870046 9.40918 0.87496H6.62918ZM5.62084 3.11246C5.58751 3.20329 5.55001 3.29079 5.50668 3.37496H10.4933C10.4502 3.29016 10.4123 3.20277 10.38 3.11329L10.3467 3.01829L10.2642 2.76829C10.2337 2.66385 10.1967 2.56142 10.1533 2.46163C10.1084 2.37497 10.0437 2.30005 9.96453 2.24289C9.88537 2.18573 9.79392 2.14791 9.69751 2.13246C9.58889 2.1231 9.47978 2.1206 9.37084 2.12496H6.62918C6.38918 2.12496 6.33918 2.12663 6.30251 2.13329C6.20618 2.14865 6.11478 2.18635 6.03562 2.24336C5.95647 2.30037 5.89176 2.37512 5.84668 2.46163C5.83001 2.49496 5.81168 2.54079 5.73584 2.76913L5.65251 3.01913L5.62084 3.11246Z" fill="black"/>
</svg>
