<svg width="40" height="35" viewBox="0 0 40 35" fill="none" xmlns="http://www.w3.org/2000/svg">
<path d="M15.1149 8.21631C15.1149 8.21631 15.5823 4.75303 17.4585 4.14233C19.5545 3.46014 23.0831 6.40565 23.0831 6.40565C23.0831 6.40565 26.7773 3.30919 29.1765 4.14233C31.1405 4.82433 32.4576 8.21631 32.4576 8.21631C32.4576 8.21631 39.3793 11.1696 39.9572 15.0063C40.3738 17.7722 37.6136 21.7962 37.6136 21.7962C37.6136 21.7962 39 26 38.5 28C38 30 35.0824 32.6602 32.4576 34.4708C29.8327 36.2815 25.1142 32.9619 23.0831 31.7548C23.0831 31.7548 20.1471 35.0277 17.9271 34.4708C16.5434 34.1237 15.7163 33.5758 14.6462 32.6602C12.5149 30.8365 10.4357 29.4867 9.95896 26.7755C9.57133 24.571 11.8337 21.7962 11.8337 21.7962C11.8337 21.7962 8.71336 17.8466 9.02139 15.0063C9.39986 11.5164 15.1149 8.21631 15.1149 8.21631Z" fill="#D8D8D8"/>
<path d="M8.59714 6.29195C8.59714 6.29195 8.57828 2.36339 10.5971 1.29209C12.7789 0.13435 16.5971 2.79195 16.5971 2.79195C16.5971 5.54119 16.5971 7.99207 16.5971 10.292M8.59714 29.7922C8.59714 29.7922 10.2478 33.6968 12.5971 33.7922C14.4377 33.8669 16.5971 31.292 16.5971 31.292C16.5971 29.3072 16.5971 27.1047 16.5971 24.792M16.5971 10.292H11.0971M16.5971 10.292C16.5971 14.9838 16.5971 20.1135 16.5971 24.792M4.09713 8.29199C4.09713 8.29199 1.56416 10.7322 1.09713 12.792C0.46847 15.5647 3.09713 19.792 3.09713 19.792M3.09713 19.792C3.09713 19.792 1.78171 22.5196 2.09713 24.292C2.37296 25.8419 4.09713 27.792 4.09713 27.792M3.09713 19.792H6.59717V16.792H11.0971M16.5971 24.792H11.0971" stroke="#4B4A4A" stroke-width="2" stroke-linejoin="round"/>
<path d="M28 6.29195C28 6.29195 28.0189 2.36339 26 1.29209C23.8183 0.13435 20 2.79195 20 2.79195C20 5.54119 20 7.99207 20 10.292C20 14.9838 20 20.1135 20 24.792C20 27.1047 20 29.3072 20 31.292C20 31.292 22.1595 33.8669 24 33.7922M32.5 8.29199C32.5 8.29199 35.033 10.7322 35.5 12.792C36.1287 15.5647 33.5 19.792 33.5 19.792C33.5 19.792 34.8155 22.5196 34.5 24.292C34.2242 25.8419 32.5 27.792 32.5 27.792" stroke="#4B4A4A" stroke-width="2" stroke-linejoin="round"/>
<circle cx="9.59717" cy="10.292" r="1.8" fill="#71F9F9" stroke="#4B4A4A" stroke-width="0.4"/>
<circle cx="12.2969" cy="16.792" r="1.8" fill="#71F9F9" stroke="#4B4A4A" stroke-width="0.4"/>
<circle cx="9.59717" cy="24.792" r="1.8" fill="#71F9F9" stroke="#4B4A4A" stroke-width="0.4"/>
<circle cx="25" cy="33" r="1.8" fill="#71F9F9" stroke="#4B4A4A" stroke-width="0.4"/>
<path d="M22.5 12.5493C22.5 10.523 23.4999 9.50981 25 9.00309C26.5 8.49638 28.4827 8.83853 30 10.0161C31.5173 11.1937 31.6845 14.0381 31.5 16.0959C31.1243 20.2852 25 19.136 25 23.1891C25 25.7613 25 27.2423 25 29.7759" stroke="#4B4A4A" stroke-width="3" stroke-linejoin="round"/>
<path d="M22.5 12.5493C22.5 10.523 23.4932 9.50981 24.9833 9.00309C26.4733 8.49638 28.4427 8.83853 29.9499 10.0161C31.457 11.1937 31.6232 14.0381 31.4399 16.0959C31.0667 20.2852 24.9833 19.136 24.9833 23.1891C24.9833 25.7613 24.9833 27.2423 24.9833 29.7759" stroke="#71F9F9" stroke-width="2" stroke-linejoin="round"/>
</svg>
